<svg id="svg" xmlns="http://www.w3.org/2000/svg" xmlns:xlink="http://www.w3.org/1999/xlink" width="400" height="400" viewBox="0, 0, 400,400"><g id="svgg"><path id="path0" d="M185.061 179.823 C 184.435 180.580,183.775 181.108,183.595 180.997 C 183.415 180.886,183.177 181.021,183.066 181.298 C 182.905 181.697,182.857 181.697,182.832 181.300 C 182.814 181.025,182.590 180.800,182.333 180.800 C 182.077 180.800,181.976 180.909,182.109 181.043 C 182.426 181.360,181.491 182.371,181.100 182.134 C 180.935 182.035,180.800 182.143,180.800 182.376 C 180.800 182.609,181.020 182.800,181.289 182.800 C 181.558 182.800,181.370 183.086,180.870 183.436 C 180.371 183.785,179.719 183.978,179.421 183.863 C 178.637 183.563,178.356 185.098,179.064 185.807 C 179.390 186.133,179.817 186.400,180.013 186.400 C 180.209 186.400,180.595 187.165,180.871 188.100 L 181.374 189.800 181.510 188.534 C 181.622 187.485,181.915 187.161,183.223 186.638 C 184.090 186.290,184.800 185.838,184.800 185.633 C 184.800 185.109,187.136 184.000,188.239 184.000 C 188.742 184.000,189.395 183.657,189.689 183.237 C 189.983 182.817,191.157 182.169,192.297 181.796 C 194.492 181.078,195.301 180.431,195.114 179.542 C 194.916 178.598,194.374 178.479,190.240 178.463 L 186.200 178.447 185.061 179.823 M201.219 186.365 C 201.001 186.771,200.143 187.378,199.312 187.712 C 198.480 188.047,197.396 188.789,196.903 189.360 C 196.256 190.109,195.615 190.400,194.612 190.400 C 193.580 190.400,193.054 190.651,192.586 191.366 C 192.178 191.988,191.286 192.494,190.076 192.789 C 189.044 193.041,187.754 193.489,187.209 193.786 C 186.338 194.260,186.072 194.229,185.009 193.526 L 183.800 192.727 184.922 193.763 C 185.540 194.333,186.384 194.800,186.800 194.800 C 187.215 194.800,187.790 195.131,188.077 195.537 C 188.365 195.942,189.005 196.488,189.500 196.751 C 190.036 197.035,190.400 197.602,190.400 198.152 C 190.400 198.660,190.760 199.402,191.200 199.800 C 192.111 200.625,192.232 200.370,191.500 199.170 C 190.883 198.160,191.717 197.411,194.188 196.756 C 195.074 196.521,196.160 196.009,196.600 195.618 C 197.040 195.228,198.265 194.621,199.322 194.271 C 200.380 193.920,201.550 193.290,201.922 192.871 C 202.295 192.452,203.645 191.890,204.921 191.621 C 206.816 191.223,207.159 191.032,206.787 190.584 C 206.536 190.282,206.442 189.856,206.577 189.638 C 206.712 189.419,206.436 189.033,205.963 188.780 C 205.367 188.461,205.187 188.455,205.375 188.760 C 205.750 189.367,204.994 189.316,204.483 188.700 C 204.028 188.151,204.014 188.094,203.968 186.500 C 203.951 185.895,203.849 185.616,203.742 185.880 C 203.605 186.215,203.256 186.249,202.581 185.993 C 201.812 185.700,201.534 185.777,201.219 186.365 M210.769 197.947 C 210.236 198.278,209.350 198.950,208.800 199.440 C 208.250 199.930,207.037 200.533,206.104 200.780 C 205.171 201.027,203.964 201.672,203.422 202.214 C 202.880 202.756,202.106 203.200,201.703 203.200 C 201.299 203.200,200.256 203.571,199.385 204.023 C 198.343 204.565,197.355 204.779,196.500 204.649 C 194.704 204.375,194.870 204.680,196.800 205.200 C 197.680 205.437,198.400 205.801,198.400 206.010 C 198.400 206.219,199.015 206.646,199.768 206.961 C 200.655 207.332,201.182 207.849,201.268 208.435 C 201.340 208.931,201.625 209.411,201.900 209.502 C 202.219 209.607,202.312 209.435,202.156 209.028 C 201.845 208.218,202.671 207.200,203.640 207.200 C 204.048 207.200,204.666 206.765,205.014 206.234 C 205.431 205.598,206.313 205.109,207.602 204.800 C 208.677 204.542,210.034 203.920,210.619 203.418 C 211.301 202.832,212.101 202.540,212.853 202.604 L 214.024 202.704 213.954 200.152 C 213.916 198.748,213.775 197.585,213.642 197.567 C 212.138 197.359,211.598 197.431,210.769 197.947 " stroke="none" fill="#dc9c74" fill-rule="evenodd"></path><path id="path1" d="M195.300 179.399 C 195.300 180.687,194.530 181.600,193.442 181.600 C 192.969 181.600,191.956 182.111,191.191 182.736 C 190.426 183.360,188.990 184.145,188.000 184.478 C 186.381 185.024,183.860 186.462,182.487 187.622 C 181.744 188.251,182.289 190.850,183.339 191.683 C 186.240 193.983,186.169 193.953,187.215 193.374 C 187.757 193.074,188.490 192.822,188.844 192.814 C 189.198 192.806,190.188 192.324,191.044 191.743 C 191.900 191.161,193.410 190.417,194.400 190.089 C 195.390 189.761,196.562 189.165,197.005 188.765 C 197.448 188.365,198.483 187.757,199.305 187.414 C 200.127 187.070,200.820 186.657,200.844 186.495 C 201.160 184.372,201.071 183.609,200.558 184.035 C 200.256 184.285,200.097 184.634,200.206 184.809 C 200.681 185.578,199.793 186.370,197.963 186.809 C 196.877 187.070,195.760 187.608,195.482 188.005 C 195.204 188.402,193.935 189.029,192.662 189.399 C 191.389 189.769,190.256 190.309,190.145 190.599 C 189.718 191.711,187.059 192.308,184.700 191.821 C 183.172 191.505,183.162 191.488,183.033 188.940 C 183.012 188.517,183.568 188.084,184.582 187.733 C 185.452 187.431,186.532 186.844,186.982 186.428 C 187.432 186.012,188.564 185.469,189.498 185.221 C 190.432 184.973,191.512 184.440,191.898 184.036 C 192.284 183.632,193.230 182.984,194.000 182.595 C 195.811 181.681,197.101 178.400,195.650 178.400 C 195.458 178.400,195.300 178.849,195.300 179.399 M204.741 192.015 C 203.719 192.387,202.488 193.059,202.007 193.508 C 201.525 193.957,200.522 194.438,199.777 194.578 C 199.033 194.718,197.923 195.240,197.312 195.738 C 196.700 196.236,195.432 196.889,194.494 197.188 C 191.776 198.055,191.549 200.772,194.060 202.386 C 194.577 202.719,195.247 203.325,195.549 203.733 C 195.896 204.202,196.411 204.402,196.949 204.277 C 198.642 203.885,202.117 202.418,202.784 201.814 C 203.159 201.475,204.351 200.903,205.433 200.544 C 206.515 200.186,207.760 199.577,208.200 199.193 C 209.283 198.246,211.255 197.278,212.595 197.035 C 214.146 196.754,214.355 196.399,212.967 196.405 C 211.127 196.412,207.583 197.480,206.650 198.309 C 206.183 198.724,205.042 199.280,204.114 199.544 C 203.187 199.808,202.197 200.337,201.914 200.721 C 201.632 201.104,200.370 201.737,199.110 202.126 C 197.851 202.516,196.641 203.142,196.422 203.517 C 196.071 204.120,196.023 204.098,196.012 203.326 C 196.003 202.692,195.608 202.310,194.577 201.937 C 193.437 201.525,193.197 201.261,193.371 200.611 C 193.491 200.165,193.592 199.589,193.595 199.332 C 193.598 199.075,194.545 198.559,195.700 198.185 C 196.855 197.811,198.070 197.198,198.400 196.823 C 198.730 196.447,199.810 195.888,200.800 195.580 C 201.790 195.273,203.369 194.439,204.309 193.727 C 205.249 193.015,206.644 192.315,207.409 192.172 C 208.174 192.028,208.800 191.763,208.800 191.582 C 208.800 191.060,206.766 191.277,204.741 192.015 M210.600 204.000 C 210.202 204.440,209.481 204.800,208.997 204.800 C 208.514 204.800,207.507 205.248,206.759 205.795 C 206.012 206.342,204.901 206.991,204.292 207.237 C 203.682 207.483,203.005 208.018,202.786 208.425 C 202.373 209.197,202.616 209.312,206.600 210.233 C 207.260 210.386,208.046 210.705,208.346 210.942 C 208.774 211.281,208.860 211.206,208.743 210.597 C 208.660 210.170,208.222 209.635,207.768 209.409 C 205.719 208.387,208.291 205.643,211.091 205.863 C 212.952 206.010,214.000 205.405,214.000 204.186 C 214.000 202.891,211.716 202.766,210.600 204.000 M205.800 208.800 C 206.417 209.065,206.206 209.150,204.876 209.172 C 203.823 209.189,203.249 209.044,203.400 208.800 C 203.694 208.324,204.693 208.324,205.800 208.800 " stroke="none" fill="#e4b48c" fill-rule="evenodd"></path><path id="path2" d="M195.632 181.451 C 195.614 181.700,195.034 182.137,194.343 182.424 C 193.651 182.710,192.635 183.362,192.084 183.873 C 191.533 184.383,190.344 184.997,189.441 185.236 C 188.539 185.476,187.432 186.012,186.982 186.428 C 186.532 186.844,185.452 187.431,184.582 187.732 C 183.712 188.033,182.983 188.532,182.961 188.840 C 182.936 189.208,182.980 189.229,183.091 188.900 C 183.183 188.625,183.864 188.400,184.603 188.400 C 186.399 188.400,188.000 187.756,188.000 187.034 C 188.000 186.216,188.710 185.855,190.796 185.610 C 192.257 185.439,192.689 185.195,193.118 184.300 C 193.407 183.695,193.972 183.200,194.373 183.200 C 195.270 183.200,196.149 182.209,195.869 181.513 C 195.745 181.204,195.651 181.180,195.632 181.451 M199.200 183.203 C 199.200 183.421,199.483 183.600,199.829 183.600 C 200.400 183.600,200.400 183.657,199.829 184.229 C 199.483 184.574,199.200 185.093,199.200 185.382 C 199.200 185.990,197.971 186.387,196.065 186.395 C 194.952 186.399,194.655 186.599,194.278 187.600 C 193.864 188.695,193.663 188.800,191.974 188.800 C 190.139 188.800,188.800 189.615,188.800 190.731 C 188.800 191.043,187.830 191.212,185.900 191.234 C 183.425 191.264,183.176 191.326,184.200 191.662 C 186.540 192.429,189.306 191.917,190.105 190.569 C 190.272 190.286,191.437 189.755,192.693 189.390 C 193.949 189.025,195.204 188.402,195.482 188.005 C 195.760 187.608,196.890 187.066,197.994 186.802 C 199.097 186.537,200.027 186.113,200.061 185.860 C 200.094 185.607,200.142 185.199,200.167 184.954 C 200.192 184.709,200.456 184.214,200.755 183.854 C 201.054 183.494,201.231 183.187,201.149 183.170 C 199.613 182.864,199.200 182.871,199.200 183.203 M208.800 191.555 C 208.800 191.751,208.174 192.028,207.409 192.172 C 206.644 192.315,205.249 193.015,204.309 193.727 C 203.369 194.439,201.790 195.273,200.800 195.580 C 199.810 195.888,198.730 196.447,198.400 196.823 C 198.070 197.198,196.855 197.811,195.700 198.185 C 194.545 198.559,193.598 199.075,193.595 199.332 C 193.592 199.589,193.478 200.250,193.342 200.800 C 193.127 201.673,193.301 201.584,194.716 200.100 C 196.033 198.719,196.606 198.400,197.769 198.400 C 199.120 198.400,200.800 197.320,200.800 196.452 C 200.800 196.261,201.645 196.009,202.677 195.892 C 204.108 195.731,204.798 195.399,205.577 194.498 C 206.140 193.847,207.185 193.087,207.900 192.809 C 208.955 192.398,209.774 191.200,209.000 191.200 C 208.890 191.200,208.800 191.360,208.800 191.555 M212.000 196.003 C 212.000 196.221,212.480 196.400,213.067 196.400 C 214.241 196.400,214.042 195.917,212.790 195.726 C 212.355 195.659,212.000 195.784,212.000 196.003 M206.508 196.681 C 206.018 196.776,205.240 197.381,204.781 198.027 C 204.127 198.945,203.639 199.200,202.533 199.200 C 201.476 199.200,200.836 199.505,199.986 200.415 C 198.985 201.487,198.578 201.634,196.526 201.665 C 194.601 201.694,194.355 201.771,195.100 202.111 C 195.608 202.343,196.005 202.887,196.012 203.361 C 196.023 204.109,196.067 204.126,196.422 203.517 C 196.641 203.142,197.851 202.516,199.110 202.126 C 200.370 201.737,201.632 201.104,201.914 200.721 C 202.197 200.337,203.187 199.808,204.114 199.544 C 205.042 199.280,206.186 198.721,206.659 198.301 C 207.131 197.882,208.391 197.298,209.459 197.005 L 211.400 196.472 209.400 196.490 C 208.300 196.501,206.999 196.586,206.508 196.681 M213.158 205.600 C 212.804 205.806,211.878 205.925,211.098 205.864 C 209.057 205.703,208.088 206.189,207.480 207.679 C 206.803 209.340,208.297 210.560,209.516 209.341 C 210.112 208.745,210.100 208.714,209.368 208.947 C 208.581 209.196,208.521 208.973,208.768 206.700 C 208.785 206.535,209.541 206.400,210.447 206.400 C 211.900 206.400,212.069 206.495,211.883 207.205 C 211.741 207.748,211.936 208.152,212.484 208.445 C 213.072 208.760,213.222 208.759,213.026 208.441 C 212.475 207.551,212.449 206.400,212.980 206.400 C 213.274 206.400,213.618 206.130,213.745 205.800 C 214.011 205.105,214.006 205.104,213.158 205.600 M203.440 208.735 C 203.326 208.919,203.991 209.087,204.917 209.107 C 206.189 209.136,206.405 209.061,205.800 208.801 C 204.747 208.347,203.698 208.318,203.440 208.735 " stroke="none" fill="#e4bc9c" fill-rule="evenodd"></path><path id="path3" d="M196.146 179.687 C 196.040 179.859,196.145 180.000,196.380 180.000 C 196.671 180.000,196.659 180.286,196.341 180.900 C 196.085 181.395,195.752 182.066,195.600 182.391 C 195.448 182.716,194.930 183.076,194.448 183.191 C 193.966 183.306,193.349 183.850,193.075 184.400 C 192.688 185.180,192.185 185.446,190.789 185.610 C 188.710 185.855,188.000 186.217,188.000 187.034 C 188.000 187.760,186.396 188.400,184.574 188.400 C 183.270 188.400,183.200 188.472,183.200 189.800 L 183.200 191.200 186.000 191.200 C 188.079 191.200,188.800 191.061,188.800 190.662 C 188.800 189.619,190.227 188.800,192.044 188.800 C 193.655 188.800,193.868 188.686,194.278 187.600 C 194.655 186.599,194.952 186.399,196.065 186.395 C 197.971 186.387,199.200 185.990,199.200 185.382 C 199.200 185.093,199.483 184.574,199.829 184.229 C 200.400 183.657,200.400 183.600,199.829 183.600 C 199.483 183.600,199.200 183.401,199.200 183.157 C 199.200 182.914,199.441 182.807,199.736 182.920 C 200.031 183.033,200.526 182.946,200.836 182.725 C 201.286 182.406,201.261 182.369,200.713 182.545 C 200.335 182.666,199.917 182.590,199.785 182.376 C 199.653 182.162,199.349 182.108,199.111 182.255 C 198.858 182.412,198.791 182.338,198.951 182.079 C 199.103 181.833,198.774 181.340,198.213 180.972 C 197.280 180.361,196.694 179.240,197.600 179.800 C 197.820 179.936,198.000 179.868,198.000 179.648 C 198.000 179.188,196.434 179.221,196.146 179.687 M207.834 192.833 C 206.992 193.205,205.914 193.997,205.438 194.594 C 204.786 195.412,204.108 195.731,202.686 195.891 C 201.649 196.008,200.800 196.261,200.800 196.452 C 200.800 197.319,199.120 198.400,197.773 198.400 C 196.453 198.400,193.186 200.919,193.761 201.494 C 194.570 202.303,198.924 201.551,199.981 200.421 C 200.815 199.527,201.480 199.201,202.460 199.204 C 203.479 199.206,204.048 198.906,204.835 197.948 C 205.796 196.779,206.091 196.674,208.935 196.491 C 210.621 196.383,212.000 196.119,212.000 195.905 C 212.000 195.690,212.241 195.607,212.536 195.720 C 212.831 195.833,213.326 195.746,213.636 195.525 C 214.086 195.206,214.061 195.169,213.513 195.345 C 213.135 195.466,212.717 195.390,212.585 195.176 C 212.453 194.962,212.149 194.908,211.911 195.055 C 211.658 195.212,211.591 195.138,211.751 194.879 C 211.903 194.633,211.574 194.140,211.013 193.772 C 210.080 193.161,209.494 192.040,210.400 192.600 C 210.620 192.736,210.800 192.668,210.800 192.448 C 210.800 191.889,209.630 192.041,207.834 192.833 M213.600 205.933 C 213.600 206.190,213.319 206.400,212.976 206.400 C 212.633 206.400,212.451 206.560,212.572 206.755 C 212.693 206.950,212.537 207.320,212.227 207.578 C 211.766 207.960,211.702 207.895,211.878 207.223 C 212.070 206.491,211.912 206.400,210.447 206.400 C 209.541 206.400,208.785 206.535,208.768 206.700 C 208.521 208.973,208.581 209.196,209.368 208.947 C 210.117 208.709,210.123 208.734,209.481 209.376 C 208.556 210.301,208.625 210.701,209.700 210.638 C 210.280 210.604,210.581 210.345,210.548 209.911 C 210.519 209.541,211.081 208.836,211.797 208.346 C 213.187 207.393,214.202 206.069,213.828 205.694 C 213.702 205.569,213.600 205.677,213.600 205.933 " stroke="none" fill="#ecc4ac" fill-rule="evenodd"></path><path id="path4" d="M176.091 193.474 L 176.200 201.000 177.300 201.127 C 178.224 201.233,178.400 201.443,178.400 202.437 C 178.400 203.422,178.594 203.659,179.558 203.852 C 180.436 204.027,180.773 204.364,180.948 205.242 C 181.143 206.213,181.375 206.400,182.390 206.400 C 183.468 206.400,183.600 206.531,183.600 207.600 C 183.600 208.667,183.733 208.800,184.800 208.800 C 185.786 208.800,186.000 208.964,186.000 209.720 C 186.000 210.892,186.708 211.600,187.880 211.600 C 188.636 211.600,188.800 211.814,188.800 212.800 L 188.800 214.000 191.200 214.000 C 193.438 214.000,193.600 214.062,193.600 214.920 C 193.600 216.549,194.295 216.800,198.800 216.800 C 203.293 216.800,204.000 216.547,204.000 214.940 C 204.000 214.125,204.217 214.029,206.300 213.920 C 208.562 213.802,208.600 213.780,208.600 212.600 C 208.600 211.412,208.573 211.397,205.909 211.134 C 202.126 210.760,200.881 210.253,198.617 208.164 C 197.527 207.158,196.137 206.078,195.529 205.763 C 194.921 205.449,194.239 204.846,194.012 204.423 C 193.786 204.000,193.286 203.544,192.900 203.410 C 192.515 203.276,191.570 202.253,190.800 201.136 C 189.321 198.990,186.110 195.600,185.556 195.600 C 185.375 195.600,184.688 195.073,184.029 194.428 C 183.370 193.784,182.599 193.109,182.315 192.928 C 181.433 192.366,179.900 189.940,179.219 188.029 C 178.647 186.424,178.409 186.185,177.275 186.074 L 175.982 185.948 176.091 193.474 M204.909 186.542 C 205.520 186.820,205.895 187.172,205.743 187.324 C 205.591 187.476,205.690 187.600,205.963 187.600 C 207.049 187.600,206.161 186.263,205.000 186.152 L 203.800 186.037 204.909 186.542 " stroke="none" fill="#bc745c" fill-rule="evenodd"></path><path id="path5" d="M191.162 182.098 C 190.590 182.325,189.914 182.846,189.658 183.256 C 188.986 184.332,189.594 184.144,191.185 182.784 C 191.947 182.133,192.487 181.619,192.385 181.643 C 192.283 181.666,191.733 181.871,191.162 182.098 M186.032 184.610 C 185.500 184.902,184.887 185.469,184.669 185.871 C 184.292 186.566,184.310 186.568,185.063 185.904 C 185.498 185.522,186.561 184.950,187.427 184.633 C 188.670 184.177,188.790 184.059,188.000 184.067 C 187.450 184.073,186.565 184.318,186.032 184.610 M182.500 186.888 C 180.514 187.846,181.503 191.182,184.322 193.033 L 186.200 194.265 187.800 193.543 C 188.680 193.146,189.166 192.816,188.880 192.810 C 188.594 192.805,187.839 193.069,187.203 193.399 C 186.438 193.794,185.958 193.856,185.789 193.582 C 185.648 193.354,184.854 192.739,184.024 192.215 C 181.782 190.800,181.390 187.812,183.323 186.878 C 183.806 186.645,184.020 186.454,183.800 186.454 C 183.580 186.454,182.995 186.649,182.500 186.888 M197.073 188.700 C 196.689 189.085,195.795 189.611,195.087 189.870 C 193.906 190.300,193.882 190.341,194.800 190.363 C 195.921 190.391,196.268 190.193,197.362 188.900 C 198.264 187.834,198.070 187.700,197.073 188.700 M191.240 191.607 C 190.272 192.263,189.642 192.798,189.840 192.795 C 190.937 192.778,192.037 192.203,192.591 191.358 C 193.374 190.162,193.372 190.163,191.240 191.607 M201.907 192.800 C 201.633 193.240,200.506 193.892,199.404 194.250 C 198.302 194.608,197.040 195.222,196.600 195.614 C 196.160 196.007,195.074 196.521,194.188 196.756 C 191.717 197.411,190.883 198.160,191.500 199.170 C 191.775 199.621,192.000 200.243,192.000 200.553 C 192.000 201.090,192.361 201.491,194.921 203.792 C 196.054 204.811,198.132 205.158,198.597 204.405 C 198.731 204.188,199.820 203.726,201.017 203.378 C 202.214 203.030,203.424 202.415,203.706 202.012 C 203.989 201.609,205.022 201.063,206.003 200.799 C 206.984 200.535,208.347 199.842,209.032 199.259 C 209.716 198.677,210.619 197.972,211.038 197.694 C 211.457 197.416,211.170 197.482,210.400 197.841 C 209.630 198.200,208.640 198.808,208.200 199.193 C 207.760 199.577,206.515 200.186,205.433 200.544 C 204.351 200.903,203.159 201.475,202.784 201.814 C 202.117 202.418,198.642 203.885,196.949 204.277 C 196.411 204.402,195.896 204.202,195.549 203.733 C 195.247 203.325,194.577 202.719,194.060 202.386 C 191.549 200.772,191.776 198.055,194.494 197.188 C 195.432 196.889,196.700 196.236,197.312 195.738 C 197.923 195.240,199.033 194.718,199.777 194.578 C 200.522 194.438,201.463 194.014,201.870 193.635 C 202.277 193.256,202.967 192.739,203.405 192.485 C 204.177 192.038,204.174 192.024,203.303 192.012 C 202.810 192.005,202.182 192.360,201.907 192.800 M210.813 203.273 C 210.371 203.685,209.602 204.186,209.105 204.386 C 208.234 204.736,208.232 204.750,209.038 204.775 C 209.499 204.789,210.202 204.440,210.600 204.000 C 211.062 203.489,211.832 203.200,212.729 203.200 C 214.271 203.200,214.151 202.660,212.589 202.576 C 212.055 202.548,211.256 202.861,210.813 203.273 M206.331 205.070 C 205.582 205.268,204.164 207.200,204.767 207.200 C 204.979 207.200,205.273 207.005,205.420 206.768 C 205.567 206.530,206.253 205.990,206.944 205.569 C 208.119 204.852,207.883 204.659,206.331 205.070 M202.480 207.680 C 201.879 208.281,201.863 209.068,202.445 209.428 C 203.167 209.874,208.414 211.147,208.217 210.828 C 208.118 210.667,206.993 210.305,205.718 210.023 C 202.371 209.284,202.113 209.087,203.146 208.054 C 203.675 207.525,203.802 207.200,203.480 207.200 C 203.194 207.200,202.744 207.416,202.480 207.680 " stroke="none" fill="#d4a890" fill-rule="evenodd"></path><path id="path6" d="M183.995 178.876 C 183.992 179.164,183.876 179.850,183.737 180.400 L 183.486 181.400 184.743 180.225 C 186.134 178.925,186.317 178.400,185.376 178.400 C 185.033 178.400,184.856 178.568,184.983 178.772 C 185.109 178.977,185.002 179.275,184.745 179.434 C 184.463 179.608,184.383 179.551,184.545 179.289 C 184.692 179.051,184.630 178.742,184.407 178.604 C 184.183 178.466,183.998 178.588,183.995 178.876 M201.778 183.928 C 201.570 184.078,201.337 184.650,201.261 185.200 C 201.184 185.750,201.248 186.076,201.402 185.926 C 201.556 185.775,202.091 185.807,202.591 185.997 C 203.384 186.298,203.500 186.216,203.500 185.358 C 203.500 184.336,202.438 183.454,201.778 183.928 M178.594 186.287 C 178.753 186.679,179.040 187.524,179.232 188.165 C 179.628 189.485,181.535 192.433,182.314 192.928 C 182.598 193.109,183.370 193.784,184.029 194.428 C 184.688 195.073,185.375 195.600,185.556 195.600 C 186.110 195.600,189.321 198.990,190.800 201.136 C 191.570 202.253,192.515 203.276,192.900 203.410 C 193.286 203.544,193.786 204.000,194.012 204.423 C 194.239 204.846,194.918 205.447,195.521 205.759 C 196.125 206.071,197.425 207.080,198.409 208.001 C 200.628 210.076,202.087 210.730,205.070 210.986 C 207.593 211.203,207.674 211.249,203.000 209.825 C 201.832 209.469,201.364 209.093,201.268 208.435 C 201.182 207.849,200.655 207.332,199.768 206.961 C 199.015 206.646,198.400 206.220,198.400 206.013 C 198.400 205.807,197.815 205.472,197.100 205.269 C 195.708 204.875,192.000 201.764,192.000 200.990 C 192.000 200.734,191.640 200.198,191.200 199.800 C 190.760 199.402,190.400 198.660,190.400 198.152 C 190.400 197.602,190.036 197.035,189.500 196.751 C 189.005 196.488,188.381 195.965,188.114 195.589 C 187.847 195.213,187.127 194.802,186.514 194.675 C 184.583 194.275,181.832 191.294,181.051 188.755 C 180.541 187.099,180.091 186.387,179.332 186.042 C 178.413 185.623,178.335 185.649,178.594 186.287 M204.096 187.300 C 204.366 189.256,205.279 189.748,206.031 188.341 C 206.443 187.572,206.403 187.506,205.645 187.704 C 205.180 187.826,204.800 187.762,204.800 187.563 C 204.800 187.363,205.025 187.197,205.300 187.194 C 205.633 187.190,205.600 187.058,205.200 186.800 C 204.260 186.192,203.963 186.327,204.096 187.300 M206.521 189.500 C 206.504 190.498,207.128 191.156,208.027 191.088 C 209.000 191.015,209.018 190.321,208.069 189.462 C 207.123 188.606,206.536 188.620,206.521 189.500 " stroke="none" fill="#d49464" fill-rule="evenodd"></path><path id="path7" d="" stroke="none" fill="#d87464" fill-rule="evenodd"></path><path id="path8" d="" stroke="none" fill="#bc7468" fill-rule="evenodd"></path></g></svg>